<?xml version="1.0" encoding="UTF-8" standalone="no"?>
<!-- Created with Vectornator (http://vectornator.io/) -->

<svg
   height="100%"
   stroke-miterlimit="10"
   style="fill-rule:nonzero;clip-rule:evenodd;stroke-linecap:round;stroke-linejoin:round;"
   version="1.1"
   viewBox="0 0 756 504"
   width="100%"
   xml:space="preserve"
   id="svg30"
   sodipodi:docname="Bi x Demiboy x Leather.svg"
   inkscape:version="1.2.2 (b0a84865, 2022-12-01)"
   xmlns:inkscape="http://www.inkscape.org/namespaces/inkscape"
   xmlns:sodipodi="http://sodipodi.sourceforge.net/DTD/sodipodi-0.dtd"
   xmlns="http://www.w3.org/2000/svg"
   xmlns:svg="http://www.w3.org/2000/svg"
   xmlns:rdf="http://www.w3.org/1999/02/22-rdf-syntax-ns#"
   xmlns:cc="http://creativecommons.org/ns#"
   xmlns:dc="http://purl.org/dc/elements/1.1/"><title
   id="title263">Bi x Demiboy x Leather Pride</title><sodipodi:namedview
   id="namedview32"
   pagecolor="#505050"
   bordercolor="#ffffff"
   borderopacity="1"
   inkscape:showpageshadow="0"
   inkscape:pageopacity="0"
   inkscape:pagecheckerboard="1"
   inkscape:deskcolor="#505050"
   showgrid="false"
   inkscape:zoom="0.46825397"
   inkscape:cx="376.9322"
   inkscape:cy="252"
   inkscape:window-width="1344"
   inkscape:window-height="456"
   inkscape:window-x="0"
   inkscape:window-y="38"
   inkscape:window-maximized="0"
   inkscape:current-layer="svg30" />
<defs
   id="defs2" />
<g
   id="Ebene-1">
<path
   d="M0 432L0 504L756 504L756 432L0 432Z"
   fill="#7f7f7f"
   fill-rule="nonzero"
   opacity="1"
   stroke="none"
   id="path4" />
<path
   d="M0 360L0 432L756 432L756 360L0 360Z"
   fill="#c4c4c4"
   fill-rule="nonzero"
   opacity="1"
   stroke="none"
   id="path6" />
<path
   d="M0 288L0 360L756 360L756 288L0 288Z"
   fill="#9dd7ea"
   fill-rule="nonzero"
   opacity="1"
   stroke="none"
   id="path8" />
<path
   d="M0 216L0 288L756 288L756 216L0 216Z"
   fill="#ffffff"
   fill-rule="nonzero"
   opacity="1"
   stroke="none"
   id="path10" />
<path
   d="M0 144L0 216L756 216L756 144L0 144Z"
   fill="#9dd7ea"
   fill-rule="nonzero"
   opacity="1"
   stroke="none"
   id="path12" />
<path
   d="M0 72L0 144L756 144L756 72L0 72Z"
   fill="#c4c4c4"
   fill-rule="nonzero"
   opacity="1"
   stroke="none"
   id="path14" />
<path
   d="M0 0L0 72L756 72L756 0L0 0Z"
   fill="#7f7f7f"
   fill-rule="nonzero"
   opacity="1"
   stroke="none"
   id="path16" />
</g>
<g
   id="Ebene-2">
<g
   opacity="1"
   id="g25">
<path
   d="M137.786 196.684C162.323 201.213 194.484 199.387 245.977 203.595C249.626 171.544 253.966 147.635 256.945 127.775C258.799 115.414 260.057 104.574 260.211 94.8017L137.786 196.684Z"
   fill="#0038a8"
   fill-rule="nonzero"
   opacity="1"
   stroke="none"
   id="path19" />
<path
   d="M100.074 179.534C111.524 189.17 123.363 194.022 137.786 196.684L260.211 94.8017C260.237 93.1625 260.301 91.48 260.257 89.9038C259.904 77.1127 257.208 65.8028 250.898 54.0173L100.074 179.534Z"
   fill="#9b4f96"
   fill-rule="nonzero"
   opacity="1"
   stroke="none"
   id="path21" />
<path
   d="M91.4306 89.7479C89.7519 91.1443 88.1991 92.6278 86.7399 94.163C77.1794 104.221 72.3164 117.033 72.4396 130.075C72.4466 130.818 72.5321 131.569 72.5713 132.312C73.1495 143.274 77.163 154.279 84.8795 163.789C90.0179 170.121 95.0158 175.277 100.074 179.534L250.898 54.0173C247.763 48.1618 243.806 42.1997 238.667 35.8668C228.072 22.8105 213.415 16.0154 198.617 15.9077C187.108 15.824 175.512 19.7792 165.652 27.981C149.743 41.2141 144.246 61.7995 147.371 82.0697C128.337 75.0326 107.339 76.5148 91.4306 89.7479Z"
   fill="#d60270"
   fill-rule="nonzero"
   opacity="1"
   stroke="none"
   id="path23" />
</g>
<path
   d="M198.625 15.9062C187.115 15.8225 175.516 19.767 165.656 27.9688C149.748 41.2019 144.25 61.7923 147.375 82.0625C128.341 75.0254 107.346 76.5169 91.4375 89.75C89.7588 91.1464 88.2092 92.6211 86.75 94.1562C77.1895 104.215 72.3143 117.021 72.4375 130.062C72.4445 130.806 72.5233 131.569 72.5625 132.312C73.1406 143.274 77.1584 154.272 84.875 163.781C90.0133 170.113 95.0047 175.275 100.062 179.531C111.513 189.168 123.359 194.025 137.781 196.688C162.318 201.217 194.475 199.386 245.969 203.594C249.617 171.542 253.958 147.642 256.938 127.781C258.792 115.42 260.065 104.584 260.219 94.8125C260.245 93.1733 260.293 91.4824 260.25 89.9062C259.897 77.1152 257.216 65.8168 250.906 54.0312C247.771 48.1758 243.795 42.2078 238.656 35.875C228.062 22.8187 213.423 16.0139 198.625 15.9062Z"
   fill="none"
   opacity="1"
   stroke="#000000"
   stroke-linecap="butt"
   stroke-linejoin="miter"
   stroke-width="1"
   id="path27" />
</g>
<metadata
   id="metadata261"><rdf:RDF><cc:Work
       rdf:about=""><dc:subject><rdf:Bag><rdf:li>lgbt lgbtqia pride leather bdsm demi demiboy demiman bi bisexual nonbinary enby trans</rdf:li></rdf:Bag></dc:subject><dc:title>Bi x Demiboy x Leather Pride</dc:title><dc:creator><cc:Agent><dc:title>Niklas 'Curly' Schmidt</dc:title></cc:Agent></dc:creator><cc:license
         rdf:resource="http://creativecommons.org/licenses/by-nc-sa/4.0/" /></cc:Work><cc:License
       rdf:about="http://creativecommons.org/licenses/by-nc-sa/4.0/"><cc:permits
         rdf:resource="http://creativecommons.org/ns#Reproduction" /><cc:permits
         rdf:resource="http://creativecommons.org/ns#Distribution" /><cc:requires
         rdf:resource="http://creativecommons.org/ns#Notice" /><cc:requires
         rdf:resource="http://creativecommons.org/ns#Attribution" /><cc:prohibits
         rdf:resource="http://creativecommons.org/ns#CommercialUse" /><cc:permits
         rdf:resource="http://creativecommons.org/ns#DerivativeWorks" /><cc:requires
         rdf:resource="http://creativecommons.org/ns#ShareAlike" /></cc:License></rdf:RDF></metadata></svg>
