<?xml version="1.0" encoding="UTF-8" standalone="no"?>
<!-- Created with Vectornator (designing) and Inkscape (for metadata)-->

<svg
   height="100%"
   stroke-miterlimit="10"
   style="fill-rule:nonzero;clip-rule:evenodd;stroke-linecap:round;stroke-linejoin:round;"
   version="1.1"
   viewBox="0 0 1008 612"
   width="100%"
   xml:space="preserve"
   id="svg24"
   sodipodi:docname="bienby.svg"
   inkscape:version="1.2.2 (b0a84865, 2022-12-01)"
   xmlns:inkscape="http://www.inkscape.org/namespaces/inkscape"
   xmlns:sodipodi="http://sodipodi.sourceforge.net/DTD/sodipodi-0.dtd"
   xmlns="http://www.w3.org/2000/svg"
   xmlns:svg="http://www.w3.org/2000/svg"
   xmlns:rdf="http://www.w3.org/1999/02/22-rdf-syntax-ns#"
   xmlns:cc="http://creativecommons.org/ns#"
   xmlns:dc="http://purl.org/dc/elements/1.1/"><title
   id="title257">Bisexual x Enby Pride Flag</title><sodipodi:namedview
   id="namedview26"
   pagecolor="#505050"
   bordercolor="#ffffff"
   borderopacity="1"
   inkscape:showpageshadow="0"
   inkscape:pageopacity="0"
   inkscape:pagecheckerboard="1"
   inkscape:deskcolor="#505050"
   showgrid="false"
   inkscape:zoom="0.38562092"
   inkscape:cx="501.78814"
   inkscape:cy="306"
   inkscape:window-width="1344"
   inkscape:window-height="456"
   inkscape:window-x="0"
   inkscape:window-y="38"
   inkscape:window-maximized="0"
   inkscape:current-layer="svg24" />
<defs
   id="defs2" />
<clipPath
   id="ArtboardFrame">
<rect
   height="612"
   width="1008"
   x="0"
   y="0"
   id="rect4" />
</clipPath>
<g
   clip-path="url(#ArtboardFrame)"
   id="Layer0">
<path
   d="M0 0L1008 0L1008 244.8L0 244.8L0 0Z"
   fill="#d60270"
   fill-rule="nonzero"
   opacity="1"
   stroke="none"
   id="path7" />
<path
   d="M0 367.2L1008 367.2L1008 612L0 612L0 367.2Z"
   fill="#0038a8"
   fill-rule="nonzero"
   opacity="1"
   stroke="none"
   id="path9" />
<path
   d="M0 0L0 612L-90 612L-90 612.094L126 612L432 310.062L126 0L0 0Z"
   fill="#2c2c2c"
   fill-rule="nonzero"
   opacity="1"
   stroke="none"
   id="path11" />
<path
   d="M0 0L0 244.812L0 367.188L0 612L-90 612L-90 612.062L54 612L301.781 367.5L507 367.5L507 367.188L1008 367.188L1008 244.812L295.594 244.812L54 0L0 0Z"
   fill="#9c59d1"
   fill-rule="nonzero"
   opacity="1"
   stroke="none"
   id="path13" />
<path
   d="M0 18.25L0 594.25L288 310.062L0 18.25Z"
   fill="#ffffff"
   fill-rule="nonzero"
   opacity="1"
   stroke="none"
   id="path15" />
<path
   d="M0 91.1875L0 523.188L216 310.062L0 91.1875Z"
   fill="#fcf434"
   fill-rule="nonzero"
   opacity="1"
   stroke="none"
   id="path17" />
<path
   d="M0 164.156L0 452.156L144 310.062L0 164.156Z"
   fill="#2c2c2c"
   fill-rule="nonzero"
   opacity="1"
   stroke="none"
   id="path19" />
<path
   d="M0 237.094L0 381.094L72 310.062L0 237.094Z"
   fill="#9c59d1"
   fill-rule="nonzero"
   opacity="1"
   stroke="none"
   id="path21" />
</g>
<metadata
   id="metadata255"><rdf:RDF><cc:Work
       rdf:about=""><dc:title>Bisexual x Enby Pride Flag</dc:title><dc:creator><cc:Agent><dc:title>Niklas 'Curly' Schmidt</dc:title></cc:Agent></dc:creator><dc:subject><rdf:Bag><rdf:li>lgbt lgbtq lgbtqia bisexual bi mspec enby non-binary nonbinary trans transgender pride queer flag</rdf:li></rdf:Bag></dc:subject><dc:description>Bisexual x Enby pride flag in the style of the progress pride flag</dc:description><cc:license
         rdf:resource="http://creativecommons.org/licenses/by-nc-sa/4.0/" /></cc:Work><cc:License
       rdf:about="http://creativecommons.org/licenses/by-nc-sa/4.0/"><cc:permits
         rdf:resource="http://creativecommons.org/ns#Reproduction" /><cc:permits
         rdf:resource="http://creativecommons.org/ns#Distribution" /><cc:requires
         rdf:resource="http://creativecommons.org/ns#Notice" /><cc:requires
         rdf:resource="http://creativecommons.org/ns#Attribution" /><cc:prohibits
         rdf:resource="http://creativecommons.org/ns#CommercialUse" /><cc:permits
         rdf:resource="http://creativecommons.org/ns#DerivativeWorks" /><cc:requires
         rdf:resource="http://creativecommons.org/ns#ShareAlike" /></cc:License></rdf:RDF></metadata></svg>