<?xml version="1.0" encoding="UTF-8" standalone="no"?>
<!-- Created with Vectornator (http://vectornator.io/) -->

<svg
   height="100%"
   stroke-miterlimit="10"
   style="fill-rule:nonzero;clip-rule:evenodd;stroke-linecap:round;stroke-linejoin:round;"
   version="1.1"
   viewBox="0 0 1920 1080"
   width="100%"
   xml:space="preserve"
   id="svg32"
   sodipodi:docname="Bi x Genderfluid x Panromantic II.svg"
   inkscape:version="1.2.2 (b0a84865, 2022-12-01)"
   xmlns:inkscape="http://www.inkscape.org/namespaces/inkscape"
   xmlns:sodipodi="http://sodipodi.sourceforge.net/DTD/sodipodi-0.dtd"
   xmlns="http://www.w3.org/2000/svg"
   xmlns:svg="http://www.w3.org/2000/svg"
   xmlns:rdf="http://www.w3.org/1999/02/22-rdf-syntax-ns#"
   xmlns:cc="http://creativecommons.org/ns#"
   xmlns:dc="http://purl.org/dc/elements/1.1/"><title
   id="title161">Bisexual x Genderfluid x Panromantic</title><sodipodi:namedview
   id="namedview34"
   pagecolor="#505050"
   bordercolor="#ffffff"
   borderopacity="1"
   inkscape:showpageshadow="0"
   inkscape:pageopacity="0"
   inkscape:pagecheckerboard="1"
   inkscape:deskcolor="#505050"
   showgrid="false"
   inkscape:zoom="0.21851852"
   inkscape:cx="963.30508"
   inkscape:cy="540"
   inkscape:window-width="1512"
   inkscape:window-height="916"
   inkscape:window-x="676"
   inkscape:window-y="1478"
   inkscape:window-maximized="1"
   inkscape:current-layer="svg32" />
<defs
   id="defs2" />
<clipPath
   id="ArtboardFrame">
<rect
   height="1080"
   width="1920"
   x="0"
   y="0"
   id="rect4" />
</clipPath>
<g
   clip-path="url(#ArtboardFrame)"
   id="genderfluid">
<path
   d="M-2.84217e-14 864L1920 864L1920 1080L-2.84217e-14 1080L-2.84217e-14 864Z"
   fill="#2f3cbe"
   fill-rule="nonzero"
   opacity="1"
   stroke="none"
   id="path7" />
<path
   d="M-2.84217e-14 648L1920 648L1920 864L-2.84217e-14 864L-2.84217e-14 648Z"
   fill="#000000"
   fill-rule="nonzero"
   opacity="1"
   stroke="none"
   id="path9" />
<path
   d="M-2.84217e-14 432L1920 432L1920 648L-2.84217e-14 648L-2.84217e-14 432Z"
   fill="#c011d7"
   fill-rule="nonzero"
   opacity="1"
   stroke="none"
   id="path11" />
<path
   d="M-2.84217e-14 216L1920 216L1920 432L-2.84217e-14 432L-2.84217e-14 216Z"
   fill="#ffffff"
   fill-rule="nonzero"
   opacity="1"
   stroke="none"
   id="path13" />
<path
   d="M-2.84217e-14 0L1920 0L1920 216L-2.84217e-14 216L-2.84217e-14 0Z"
   fill="#ff76a4"
   fill-rule="nonzero"
   opacity="1"
   stroke="none"
   id="path15" />
</g>
<g
   clip-path="url(#ArtboardFrame)"
   id="bi">
<path
   d="M0 0L0 216L0 432L0 648L0 1080L1920 1080L1152 648L768 432L0 0Z"
   fill="none"
   opacity="1"
   stroke="#000000"
   stroke-linecap="butt"
   stroke-linejoin="miter"
   stroke-width="9"
   id="path18" />
<path
   d="M0 0L0 216L0 432L768 432L0 0Z"
   fill="#d60270"
   fill-rule="nonzero"
   opacity="1"
   stroke="none"
   id="path20" />
<path
   d="M0 648L0 1080L1920 1080L1152 648L0 648Z"
   fill="#0038a8"
   fill-rule="nonzero"
   opacity="1"
   stroke="none"
   id="path22" />
<path
   d="M0 432L0 648L1152 648L768 432L0 432Z"
   fill="#9b4f96"
   fill-rule="nonzero"
   opacity="1"
   stroke="none"
   id="path24" />
</g>
<g
   id="pan">
<path
   d="M554 417.009C554 294.965 644.666 196.029 756.508 196.029C868.35 196.029 959.016 294.965 959.016 417.009C959.016 478.731 959.015 802.653 959.015 802.653L873.446 756.155C829.351 707.709 721.654 650.43 721.654 650.43C603.223 585.44 554 530.957 554 417.009Z"
   fill="#ff0000"
   fill-rule="nonzero"
   opacity="1"
   stroke="#000000"
   stroke-linecap="butt"
   stroke-linejoin="miter"
   stroke-width="4.59414"
   id="path27" />
<path
   d="M926.615 180L926.615 217.243L857.912 217.243L857.912 283.141L926.615 283.141L926.615 431.253L857.912 431.253L857.912 496.916L926.615 496.916L926.615 576.132L857.028 576.132L857.03 635.958L926.615 635.958L926.614 773.756L857.028 678.585L857.028 755.71L959.988 899.681L959.988 899.877L960.063 899.779L960.212 900L959.971 899.571L1063.01 755.71L1063.01 678.585L993.324 773.756L993.324 635.96L1063.01 635.96L1063.01 576.132L993.324 576.132L993.324 496.916L1071.39 496.916C1071.39 496.916 1215.93 502.959 1213.98 355.1C1212.17 218.187 1078.3 217.629 1072.41 217.587L1072.41 217.243L993.324 217.243L993.324 180L926.615 180ZM1072.41 283.141C1078.16 283.238 1161.24 283.513 1162.33 355.1C1163.55 434.403 1071.37 431.35 1071.01 431.34L1071.01 431.253L993.324 431.253L993.127 283.141L1072.41 283.141Z"
   fill="#000000"
   fill-rule="nonzero"
   opacity="1"
   stroke="none"
   id="path29" />
</g>
<metadata
   id="metadata159"><rdf:RDF><cc:Work
       rdf:about=""><dc:title>Bisexual x Genderfluid x Panromantic</dc:title><dc:creator><cc:Agent><dc:title>Niklas 'Curly' Schmidt</dc:title></cc:Agent></dc:creator><dc:subject><rdf:Bag><rdf:li>lgbt lgbtq lgbtqia pride bisexual bi genderfluid pan panromantic</rdf:li></rdf:Bag></dc:subject><dc:description>Bisexual x Genderfluid x Panromantic flag, using the panromantic heart symbol</dc:description><cc:license
         rdf:resource="http://creativecommons.org/licenses/by-nc-sa/4.0/" /></cc:Work><cc:License
       rdf:about="http://creativecommons.org/licenses/by-nc-sa/4.0/"><cc:permits
         rdf:resource="http://creativecommons.org/ns#Reproduction" /><cc:permits
         rdf:resource="http://creativecommons.org/ns#Distribution" /><cc:requires
         rdf:resource="http://creativecommons.org/ns#Notice" /><cc:requires
         rdf:resource="http://creativecommons.org/ns#Attribution" /><cc:prohibits
         rdf:resource="http://creativecommons.org/ns#CommercialUse" /><cc:permits
         rdf:resource="http://creativecommons.org/ns#DerivativeWorks" /><cc:requires
         rdf:resource="http://creativecommons.org/ns#ShareAlike" /></cc:License></rdf:RDF></metadata></svg>
