<?xml version="1.0" encoding="UTF-8" standalone="no"?>
<!-- Created with Vectornator (http://vectornator.io/) -->

<svg
   height="100%"
   stroke-miterlimit="10"
   style="fill-rule:nonzero;clip-rule:evenodd;stroke-linecap:round;stroke-linejoin:round;"
   version="1.1"
   viewBox="0 0 1656.87 1835.34"
   width="100%"
   xml:space="preserve"
   id="svg12"
   sodipodi:docname="Panromantic Heart.svg"
   inkscape:version="1.2.2 (b0a84865, 2022-12-01)"
   xmlns:inkscape="http://www.inkscape.org/namespaces/inkscape"
   xmlns:sodipodi="http://sodipodi.sourceforge.net/DTD/sodipodi-0.dtd"
   xmlns="http://www.w3.org/2000/svg"
   xmlns:svg="http://www.w3.org/2000/svg"
   xmlns:rdf="http://www.w3.org/1999/02/22-rdf-syntax-ns#"
   xmlns:cc="http://creativecommons.org/ns#"
   xmlns:dc="http://purl.org/dc/elements/1.1/"><title
   id="title245">Panromantic symbol</title><sodipodi:namedview
   id="namedview14"
   pagecolor="#505050"
   bordercolor="#ffffff"
   borderopacity="1"
   inkscape:showpageshadow="0"
   inkscape:pageopacity="0"
   inkscape:pagecheckerboard="1"
   inkscape:deskcolor="#505050"
   showgrid="false"
   inkscape:zoom="0.12858653"
   inkscape:cx="828.23606"
   inkscape:cy="921.55843"
   inkscape:window-width="2560"
   inkscape:window-height="1387"
   inkscape:window-x="0"
   inkscape:window-y="25"
   inkscape:window-maximized="0"
   inkscape:current-layer="svg12" />
<defs
   id="defs2" />
<clipPath
   id="ArtboardFrame">
<rect
   height="1835.34"
   width="1656.87"
   x="0"
   y="0"
   id="rect4" />
</clipPath>
<g
   clip-path="url(#ArtboardFrame)"
   id="layer">
<path
   d="M-1.13687e-13 604.158C-1.13687e-13 293.058 227.609 40.8618 508.379 40.8618C789.149 40.8618 1016.76 293.057 1016.76 604.157C1016.76 761.493 1016.76 1587.2 1016.76 1587.2L801.942 1468.67C691.245 1345.18 420.881 1199.17 420.881 1199.17C123.569 1033.5-1.13687e-13 894.622-1.13687e-13 604.158Z"
   fill="#ff0000"
   fill-rule="nonzero"
   opacity="1"
   stroke="#000000"
   stroke-linecap="butt"
   stroke-linejoin="miter"
   stroke-width="12"
   id="path7" />
<path
   d="M935.417 0.001875L935.417 94.9379L762.946 94.9379L762.946 262.918L935.417 262.918L935.417 640.467L762.946 640.467L762.946 807.846L935.417 807.846L935.417 1009.78L760.726 1009.78L760.729 1162.28L935.417 1162.28L935.416 1513.54L760.726 1270.94L760.726 1467.54L1019.2 1834.53L1019.2 1835.03L1019.39 1834.78L1019.76 1835.34L1019.16 1834.25L1277.83 1467.54L1277.83 1270.94L1102.89 1513.54L1102.89 1162.28L1277.82 1162.28L1277.83 1009.78L1102.89 1009.78L1102.89 807.846L1298.85 807.846C1298.85 807.846 1661.72 823.25 1656.82 446.347C1652.29 97.3439 1316.21 95.9215 1301.42 95.8142L1301.42 94.9379L1102.89 94.9379L1102.89 0.001875L935.417 0.001875ZM1301.42 262.918C1315.87 263.164 1524.41 263.865 1527.17 446.347C1530.22 648.496 1298.82 640.715 1297.92 640.688L1297.92 640.467L1102.89 640.467L1102.39 262.918L1301.42 262.918Z"
   fill="#000000"
   fill-rule="nonzero"
   opacity="1"
   stroke="none"
   id="path9" />
</g>
<metadata
   id="metadata243"><rdf:RDF><cc:Work
       rdf:about=""><dc:title>Panromantic symbol</dc:title><dc:description>Panromantic symbol</dc:description><dc:subject><rdf:Bag><rdf:li>lgbt lgbtq lgbtqia pan panromantic pansexual pride</rdf:li></rdf:Bag></dc:subject></cc:Work></rdf:RDF></metadata></svg>
